<?xml version="1.0" encoding="UTF-8" standalone="no"?>
<!DOCTYPE svg PUBLIC "-//W3C//DTD SVG 1.1//EN"
 "http://www.w3.org/Graphics/SVG/1.1/DTD/svg11.dtd">
<!-- Generated by graphviz version 12.1.2 (20240928.0832)
 -->
<!-- Title: structs Pages: 1 -->
<svg width="419pt" height="121pt"
 viewBox="0.00 0.00 418.75 120.75" xmlns="http://www.w3.org/2000/svg" xmlns:xlink="http://www.w3.org/1999/xlink">
<g id="graph0" class="graph" transform="scale(1 1) rotate(0) translate(4 116.75)">
<title>structs</title>
<polygon fill="white" stroke="none" points="-4,4 -4,-116.75 414.75,-116.75 414.75,4 -4,4"/>
<!-- Node_0 -->
<g id="node1" class="node">
<title>Node_0</title>
<polygon fill="none" stroke="none" points="315.75,-26.5 315.75,-98.5 402.75,-98.5 402.75,-26.5 315.75,-26.5"/>
<polygon fill="none" stroke="black" points="315.75,-74.5 315.75,-98.5 329.75,-98.5 329.75,-74.5 315.75,-74.5"/>
<text text-anchor="start" x="321.25" y="-82.1" font-family="Times,serif" font-size="12.00">l</text>
<polygon fill="none" stroke="black" points="329.75,-26.5 329.75,-98.5 392.75,-98.5 392.75,-26.5 329.75,-26.5"/>
<text text-anchor="start" x="339.88" y="-65.7" font-family="Times,serif" font-size="14.00">Node_0</text>
<text text-anchor="start" x="334.62" y="-49.2" font-family="Times,serif" font-size="14.00">(AUSink)</text>
<polygon fill="none" stroke="black" points="392.75,-74.5 392.75,-98.5 402.75,-98.5 402.75,-74.5 392.75,-74.5"/>
<polygon fill="none" stroke="black" points="315.75,-50.5 315.75,-74.5 329.75,-74.5 329.75,-50.5 315.75,-50.5"/>
<text text-anchor="start" x="320.88" y="-58.1" font-family="Times,serif" font-size="12.00">r</text>
<polygon fill="none" stroke="black" points="392.75,-50.5 392.75,-74.5 402.75,-74.5 402.75,-50.5 392.75,-50.5"/>
<polygon fill="none" stroke="black" points="315.75,-26.5 315.75,-50.5 329.75,-50.5 329.75,-26.5 315.75,-26.5"/>
<text text-anchor="start" x="320.5" y="-34.1" font-family="Times,serif" font-size="12.00">s</text>
<polygon fill="none" stroke="black" points="392.75,-26.5 392.75,-50.5 402.75,-50.5 402.75,-26.5 392.75,-26.5"/>
</g>
<!-- Node_1 -->
<g id="node2" class="node">
<title>Node_1</title>
<polygon fill="none" stroke="none" points="8,-63 8,-106 60.75,-106 60.75,-63 8,-63"/>
<polygon fill="none" stroke="black" points="8,-63 8,-106 60.75,-106 60.75,-63 8,-63"/>
<text text-anchor="start" x="13" y="-87.7" font-family="Times,serif" font-size="14.00">Node_1</text>
<text text-anchor="start" x="17.5" y="-71.2" font-family="Times,serif" font-size="14.00">(Sam)</text>
</g>
<!-- dup0 -->
<g id="node4" class="node">
<title>dup0</title>
<ellipse fill="black" stroke="black" cx="188.25" cy="-84.5" rx="1.8" ry="1.8"/>
</g>
<!-- Node_1&#45;&gt;dup0 -->
<g id="edge2" class="edge">
<title>Node_1:i&#45;&gt;dup0</title>
<path fill="none" stroke="black" d="M60.45,-84.5C95.7,-84.5 158,-84.5 179.61,-84.5"/>
<polygon fill="black" stroke="black" points="179.54,-86.25 184.54,-84.5 179.54,-82.75 179.54,-86.25"/>
<text text-anchor="start" x="86.75" y="-87.35" font-family="Times,serif" font-size="12.00">f32(64)</text>
<text text-anchor="start" x="66.45" y="-93.35" font-family="Times,serif" font-size="12.00" fill="blue">64</text>
</g>
<!-- Node_2 -->
<g id="node3" class="node">
<title>Node_2</title>
<polygon fill="none" stroke="none" points="148,-4 148,-47 228.5,-47 228.5,-4 148,-4"/>
<polygon fill="none" stroke="black" points="148,-4 148,-47 228.5,-47 228.5,-4 148,-4"/>
<text text-anchor="start" x="166.88" y="-28.7" font-family="Times,serif" font-size="14.00">Node_2</text>
<text text-anchor="start" x="153" y="-12.2" font-family="Times,serif" font-size="14.00">(NullSource)</text>
</g>
<!-- Node_2&#45;&gt;Node_0 -->
<g id="edge1" class="edge">
<title>Node_2:i&#45;&gt;Node_0:s</title>
<path fill="none" stroke="black" d="M228.43,-31.66C251.39,-34.78 281.18,-38.01 308.58,-38.45"/>
<polygon fill="black" stroke="black" points="308.22,-40.2 313.24,-38.49 308.25,-36.7 308.22,-40.2"/>
<text text-anchor="start" x="264.25" y="-40.46" font-family="Times,serif" font-size="12.00">f32</text>
</g>
<!-- dup0&#45;&gt;Node_0 -->
<g id="edge3" class="edge">
<title>dup0&#45;&gt;Node_0:l</title>
<path fill="none" stroke="black" d="M190.49,-84.53C199.67,-84.79 258.22,-86.36 308.37,-86.49"/>
<polygon fill="black" stroke="black" points="308.23,-88.24 313.24,-86.5 308.24,-84.74 308.23,-88.24"/>
<text text-anchor="start" x="254.5" y="-89.21" font-family="Times,serif" font-size="12.00">f32(64)</text>
<text text-anchor="start" x="296.75" y="-95.35" font-family="Times,serif" font-size="12.00" fill="blue">64</text>
</g>
<!-- dup0&#45;&gt;Node_0 -->
<g id="edge4" class="edge">
<title>dup0&#45;&gt;Node_0:r</title>
<path fill="none" stroke="black" d="M190.16,-84.19C195.89,-82.27 227.7,-71.81 254.5,-67.25 278.7,-63.13 286.56,-62.57 308.24,-62.51"/>
<polygon fill="black" stroke="black" points="308.24,-64.26 313.24,-62.5 308.23,-60.76 308.24,-64.26"/>
<text text-anchor="start" x="254.5" y="-70.1" font-family="Times,serif" font-size="12.00">f32(64)</text>
<text text-anchor="start" x="296.75" y="-45.1" font-family="Times,serif" font-size="12.00" fill="blue">64</text>
</g>
</g>
</svg>
